# xmcd
#
# Track frame offsets:
#	150
#	23652
#	45799
#	69333
#	95979
#	114820
#	132541
#	150867
#	168891
#	192852
#	222697
#
# Disc length: 3255 seconds
#
# Revision: 0
# Processed by: cddbd v1.5.2PL0 Copyright (c) Steve Scherf et al.
# Submitted via: dBpowerAMP V4.0
#
DISCID=890cb50b
DTITLE=Jose Cabezas - Nature Is My Soul
DYEAR=1900
DGENRE=Country
TTITLE0=01 - Nature Is My Soul
TTITLE1=02 - Contentment
TTITLE2=03 - Uplifting Winds
TTITLE3=04- Serenity
TTITLE4=05 - Listen To Your Heart
TTITLE5=06 - Vision Of Lovelineless
TTITLE6=07 - My Beatuful Flower
TTITLE7=08 - Day Dreaming
TTITLE8=09 - Quail And Dove
TTITLE9=10 - Calm Waters
TTITLE10=11 - Setting Sun
EXTD=
EXTT0=
EXTT1=
EXTT2=
EXTT3=
EXTT4=
EXTT5=
EXTT6=
EXTT7=
EXTT8=
EXTT9=
EXTT10=
PLAYORDER=
